<svg width="1920" height="1080" viewBox="0 0 1920 1080" fill="none" xmlns="http://www.w3.org/2000/svg">
<g clip-path="url(#clip0_57_30)">
<rect width="1920" height="1080" fill="white"/>
<g clip-path="url(#clip1_57_30)">
<rect width="1920" height="1080" fill="#71ED88"/>
<g clip-path="url(#clip2_57_30)">
<rect width="1920" height="1080" fill="#71ED88"/>
<path d="M-77.2967 -584.201C-366.356 -248.501 -277.164 346.076 178 738C388.966 919.655 863.022 894.06 1242.56 840.495C1358.51 824.131 1476.59 855.042 1566.56 929.991L2013.52 1302.35L2252.56 1514.96C2437.8 1679.72 2731.59 1561.45 2751.01 1314.3L2753.9 1277.59C2761.38 1182.29 2723.01 1089.13 2650.57 1026.76L1871.53 355.958C1735.94 239.205 1740.2 49.1772 1725.76 -129.171C1719.35 -208.359 1665.49 -262.566 1527.31 -273.146C1417.03 -281.59 1307.48 -310.282 1218.35 -375.767C771.715 -703.911 184.264 -887.966 -77.2967 -584.201Z" fill="#E6FF79"/>
<g clip-path="url(#clip3_57_30)">
<rect width="412" height="557" transform="translate(754 75)" fill="#E6FF79"/>
</g>
</g>
</g>
</g>
<defs>
<clipPath id="clip0_57_30">
<rect width="1920" height="1080" fill="white"/>
</clipPath>
<clipPath id="clip1_57_30">
<rect width="1920" height="1080" fill="white"/>
</clipPath>
<clipPath id="clip2_57_30">
<rect width="1920" height="1080" fill="white"/>
</clipPath>
<clipPath id="clip3_57_30">
<rect width="412" height="557" fill="white" transform="translate(754 75)"/>
</clipPath>
</defs>
</svg>
