<svg width="1920" height="1080" viewBox="0 0 1920 1080" fill="none" xmlns="http://www.w3.org/2000/svg">
<rect width="1920" height="1080" fill="#E6FE79"/>
<rect width="852" height="1080" fill="#71ED88"/>
<g clip-path="url(#clip0_50_2)">
<rect width="412" height="1080" transform="translate(754)" fill="#E6FF79"/>
<path d="M218.188 32.682C424.294 -186.952 721.189 -243.184 881.32 -92.9152C992.142 11.0816 1008.42 186.729 939.609 357.846C892.975 473.821 895.626 614.682 986.777 700.219V700.219C1079.09 786.844 1083.7 931.901 997.071 1024.21C910.446 1116.52 765.389 1121.13 673.077 1034.51L464.7 838.963V838.963C433.27 809.47 392.801 787.863 349.724 786.439C267.525 783.721 192.423 756.388 134.943 702.449C-25.1882 552.18 12.0821 252.315 218.188 32.682Z" fill="#71ED88"/>
</g>
<defs>
<clipPath id="clip0_50_2">
<rect width="412" height="1080" fill="white" transform="translate(754)"/>
</clipPath>
</defs>
</svg>
