<svg width="412" height="917" viewBox="0 0 412 917" fill="none" xmlns="http://www.w3.org/2000/svg">
<g clip-path="url(#clip0_57_2)">
<rect width="412" height="917" fill="#71ED88"/>
<g clip-path="url(#clip1_57_2)">
<rect width="412" height="917" fill="white"/>
<g clip-path="url(#clip2_57_2)">
<rect width="412" height="917" fill="#71ED88"/>
<g clip-path="url(#clip3_57_2)">
<rect width="412" height="917" fill="#71ED88"/>
<path d="M-492.559 54.7505C-663.72 280.201 -650.777 578.131 -463.651 720.197C-322.728 827.184 -273.547 795.734 -71.5277 692.097C55.8061 626.774 208.152 642.322 324.398 725.796L340 737L373.694 764.004C488.716 856.184 660.544 796.601 693.806 653.002C711.595 576.204 682.642 496.118 619.855 448.45L456.493 324.427C360.729 251.723 314.292 133.594 259.107 26.7699C234.501 -20.8618 200.148 -62.8501 156.178 -96.2323C-30.9486 -238.298 -321.398 -170.7 -492.559 54.7505Z" fill="#E6FF79"/>
</g>
</g>
</g>
</g>
<defs>
<clipPath id="clip0_57_2">
<rect width="412" height="917" fill="white"/>
</clipPath>
<clipPath id="clip1_57_2">
<rect width="412" height="917" fill="white"/>
</clipPath>
<clipPath id="clip2_57_2">
<rect width="412" height="917" fill="white"/>
</clipPath>
<clipPath id="clip3_57_2">
<rect width="412" height="917" fill="white"/>
</clipPath>
</defs>
</svg>
